M48
METRIC,TZ
T1C0.400
T2C0.500
T3C0.750
T4C1.000
%
G90
G05
T1
X102438Y-77546
X103276Y-79858
X153060Y-79553
X154229Y-81102
T3
X108407Y-75311
T4
X105359Y-75819
X105359Y-81305
X108407Y-81305
T2
G00X108397Y-90161
M15
G01X108397Y-88661
M16
G05
G00X109895Y-88661
M15
G01X109895Y-90161
M16
G05
G00X111395Y-90161
M15
G01X111395Y-88661
M16
G05
G00X112895Y-90161
M15
G01X112895Y-88661
M16
G05
G00X114395Y-88661
M15
G01X114395Y-90161
M16
G05
G00X115895Y-88661
M15
G01X115895Y-90161
M16
G05
G00X117395Y-88661
M15
G01X117395Y-90161
M16
G05
G00X118895Y-88661
M15
G01X118895Y-90161
M16
G05
G00X120395Y-88661
M15
G01X120395Y-90161
M16
G05
G00X121895Y-88661
M15
G01X121895Y-90161
M16
G05
G00X123395Y-88661
M15
G01X123395Y-90161
M16
G05
G00X124895Y-88661
M15
G01X124895Y-90161
M16
G05
G00X126395Y-88661
M15
G01X126395Y-90161
M16
G05
G00X127895Y-88661
M15
G01X127895Y-90161
M16
G05
G00X129395Y-88661
M15
G01X129395Y-90161
M16
G05
G00X130895Y-88661
M15
G01X130895Y-90161
M16
G05
G00X132395Y-88661
M15
G01X132395Y-90161
M16
G05
G00X133895Y-88661
M15
G01X133895Y-90161
M16
G05
G00X135395Y-88661
M15
G01X135395Y-90161
M16
G05
G00X136895Y-88661
M15
G01X136895Y-90161
M16
G05
G00X138395Y-88661
M15
G01X138395Y-90161
M16
G05
G00X139895Y-88661
M15
G01X139895Y-90161
M16
G05
G00X141395Y-88661
M15
G01X141395Y-90161
M16
G05
G00X142895Y-88661
M15
G01X142895Y-90161
M16
G05
G00X144395Y-88661
M15
G01X144395Y-90161
M16
G05
G00X145895Y-88661
M15
G01X145895Y-90161
M16
G05
G00X147395Y-88661
M15
G01X147395Y-90161
M16
G05
G00X148895Y-88661
M15
G01X148895Y-90161
M16
G05
G00X150395Y-88661
M15
G01X150395Y-90161
M16
G05
G00X151895Y-88661
M15
G01X151895Y-90161
M16
G05
G00X153395Y-88661
M15
G01X153395Y-90161
M16
G05
G00X154894Y-90161
M15
G01X154894Y-88661
M16
G05
M30
