%TF.GenerationSoftware,KiCad,Pcbnew,7.0.10*%
%TF.CreationDate,2024-03-02T15:00:59+00:00*%
%TF.ProjectId,gba_flex_ds_lite,6762615f-666c-4657-985f-64735f6c6974,rev?*%
%TF.SameCoordinates,Original*%
%TF.FileFunction,Copper,L1,Top*%
%TF.FilePolarity,Positive*%
%FSLAX46Y46*%
G04 Gerber Fmt 4.6, Leading zero omitted, Abs format (unit mm)*
G04 Created by KiCad (PCBNEW 7.0.10) date 2024-03-02 15:00:59*
%MOMM*%
%LPD*%
G01*
G04 APERTURE LIST*
G04 Aperture macros list*
%AMRoundRect*
0 Rectangle with rounded corners*
0 $1 Rounding radius*
0 $2 $3 $4 $5 $6 $7 $8 $9 X,Y pos of 4 corners*
0 Add a 4 corners polygon primitive as box body*
4,1,4,$2,$3,$4,$5,$6,$7,$8,$9,$2,$3,0*
0 Add four circle primitives for the rounded corners*
1,1,$1+$1,$2,$3*
1,1,$1+$1,$4,$5*
1,1,$1+$1,$6,$7*
1,1,$1+$1,$8,$9*
0 Add four rect primitives between the rounded corners*
20,1,$1+$1,$2,$3,$4,$5,0*
20,1,$1+$1,$4,$5,$6,$7,0*
20,1,$1+$1,$6,$7,$8,$9,0*
20,1,$1+$1,$8,$9,$2,$3,0*%
G04 Aperture macros list end*
%TA.AperFunction,SMDPad,CuDef*%
%ADD10R,1.000000X2.500000*%
%TD*%
%TA.AperFunction,SMDPad,CuDef*%
%ADD11RoundRect,0.375000X0.625000X-0.375000X0.625000X0.375000X-0.625000X0.375000X-0.625000X-0.375000X0*%
%TD*%
%TA.AperFunction,ComponentPad*%
%ADD12R,1.000000X2.500000*%
%TD*%
%TA.AperFunction,ComponentPad*%
%ADD13C,1.500000*%
%TD*%
%TA.AperFunction,ComponentPad*%
%ADD14O,1.500000X1.000000*%
%TD*%
%TA.AperFunction,ViaPad*%
%ADD15C,0.800000*%
%TD*%
%TA.AperFunction,Conductor*%
%ADD16C,0.250000*%
%TD*%
G04 APERTURE END LIST*
D10*
%TO.P,J1,1,Pin_1*%
%TO.N,Net-(J1-Pad1)*%
X108390460Y-77373220D03*
%TO.P,J1,2,Pin_2*%
%TO.N,Net-(J1-Pad2)*%
X109888760Y-77373480D03*
%TO.P,J1,3,Pin_3*%
%TO.N,Net-(J1-Pad3)*%
X111388760Y-77373480D03*
%TO.P,J1,4,Pin_4*%
%TO.N,Net-(J1-Pad4)*%
X112888760Y-77373480D03*
%TO.P,J1,5,Pin_5*%
%TO.N,Net-(J1-Pad5)*%
X114388760Y-77373480D03*
%TO.P,J1,6,Pin_6*%
%TO.N,Net-(J1-Pad6)*%
X115888760Y-77373480D03*
%TO.P,J1,7,Pin_7*%
%TO.N,Net-(J1-Pad7)*%
X117388760Y-77373480D03*
%TO.P,J1,8,Pin_8*%
%TO.N,Net-(J1-Pad8)*%
X118888760Y-77373480D03*
%TO.P,J1,9,Pin_9*%
%TO.N,Net-(J1-Pad9)*%
X120388760Y-77373480D03*
%TO.P,J1,10,Pin_10*%
%TO.N,Net-(J1-Pad10)*%
X121888760Y-77373480D03*
%TO.P,J1,11,Pin_11*%
%TO.N,Net-(J1-Pad11)*%
X123388760Y-77373480D03*
%TO.P,J1,12,Pin_12*%
%TO.N,Net-(J1-Pad12)*%
X124888760Y-77373480D03*
%TO.P,J1,13,Pin_13*%
%TO.N,Net-(J1-Pad13)*%
X126388760Y-77373480D03*
%TO.P,J1,14,Pin_14*%
%TO.N,Net-(J1-Pad14)*%
X127888760Y-77373480D03*
%TO.P,J1,15,Pin_15*%
%TO.N,Net-(J1-Pad15)*%
X129388760Y-77373480D03*
%TO.P,J1,16,Pin_16*%
%TO.N,Net-(J1-Pad16)*%
X130888760Y-77373480D03*
%TO.P,J1,17,Pin_17*%
%TO.N,Net-(J1-Pad17)*%
X132388760Y-77373480D03*
%TO.P,J1,18,Pin_18*%
%TO.N,Net-(J1-Pad18)*%
X133888760Y-77373480D03*
%TO.P,J1,19,Pin_19*%
%TO.N,Net-(J1-Pad19)*%
X135388760Y-77373480D03*
%TO.P,J1,20,Pin_20*%
%TO.N,Net-(J1-Pad20)*%
X136888760Y-77373480D03*
%TO.P,J1,21,Pin_21*%
%TO.N,Net-(J1-Pad21)*%
X138388760Y-77373480D03*
%TO.P,J1,22,Pin_22*%
%TO.N,Net-(J1-Pad22)*%
X139888760Y-77373480D03*
%TO.P,J1,23,Pin_23*%
%TO.N,Net-(J1-Pad23)*%
X141388760Y-77373480D03*
%TO.P,J1,24,Pin_24*%
%TO.N,Net-(J1-Pad24)*%
X142888760Y-77373480D03*
%TO.P,J1,25,Pin_25*%
%TO.N,Net-(J1-Pad25)*%
X144388760Y-77373480D03*
%TO.P,J1,26,Pin_26*%
%TO.N,Net-(J1-Pad26)*%
X145888760Y-77373480D03*
%TO.P,J1,27,Pin_27*%
%TO.N,Net-(J1-Pad27)*%
X147388760Y-77373480D03*
%TO.P,J1,28,Pin_28*%
%TO.N,Net-(J1-Pad28)*%
X148888760Y-77373480D03*
%TO.P,J1,29,Pin_29*%
%TO.N,Net-(J1-Pad29)*%
X150388760Y-77373480D03*
%TO.P,J1,30,Pin_30*%
%TO.N,Net-(J1-Pad30)*%
X151888760Y-77373480D03*
%TO.P,J1,31,Pin_31*%
%TO.N,Net-(J1-Pad31)*%
X153388760Y-77373480D03*
%TO.P,J1,32,Pin_32*%
%TO.N,Net-(J1-Pad32)*%
X154887700Y-77373480D03*
%TD*%
D11*
%TO.P,U2,1,1*%
%TO.N,Net-(U1-Pad1)*%
X98983800Y-81280000D03*
%TO.P,U2,2,2*%
%TO.N,Net-(U1-Pad2)*%
X98983800Y-75793600D03*
%TO.P,U2,3,3*%
%TO.N,Net-(U1-Pad3)*%
X102031800Y-75793600D03*
%TO.P,U2,4,4*%
%TO.N,Net-(U1-Pad4)*%
X102031800Y-81280000D03*
%TD*%
D12*
%TO.P,J2,1,Pin_1*%
%TO.N,Net-(J1-Pad1)*%
X108397040Y-89410540D03*
%TO.P,J2,2,Pin_2*%
%TO.N,Net-(J1-Pad2)*%
X109895340Y-89410800D03*
%TO.P,J2,3,Pin_3*%
%TO.N,Net-(J1-Pad3)*%
X111395340Y-89410800D03*
%TO.P,J2,4,Pin_4*%
%TO.N,Net-(J1-Pad4)*%
X112895340Y-89410800D03*
%TO.P,J2,5,Pin_5*%
%TO.N,Net-(J1-Pad5)*%
X114395340Y-89410800D03*
%TO.P,J2,6,Pin_6*%
%TO.N,Net-(J1-Pad6)*%
X115895340Y-89410800D03*
%TO.P,J2,7,Pin_7*%
%TO.N,Net-(J1-Pad7)*%
X117395340Y-89410800D03*
%TO.P,J2,8,Pin_8*%
%TO.N,Net-(J1-Pad8)*%
X118895340Y-89410800D03*
%TO.P,J2,9,Pin_9*%
%TO.N,Net-(J1-Pad9)*%
X120395340Y-89410800D03*
%TO.P,J2,10,Pin_10*%
%TO.N,Net-(J1-Pad10)*%
X121895340Y-89410800D03*
%TO.P,J2,11,Pin_11*%
%TO.N,Net-(J1-Pad11)*%
X123395340Y-89410800D03*
%TO.P,J2,12,Pin_12*%
%TO.N,Net-(J1-Pad12)*%
X124895340Y-89410800D03*
%TO.P,J2,13,Pin_13*%
%TO.N,Net-(J1-Pad13)*%
X126395340Y-89410800D03*
%TO.P,J2,14,Pin_14*%
%TO.N,Net-(J1-Pad14)*%
X127895340Y-89410800D03*
%TO.P,J2,15,Pin_15*%
%TO.N,Net-(J1-Pad15)*%
X129395340Y-89410800D03*
%TO.P,J2,16,Pin_16*%
%TO.N,Net-(J1-Pad16)*%
X130895340Y-89410800D03*
%TO.P,J2,17,Pin_17*%
%TO.N,Net-(J1-Pad17)*%
X132395340Y-89410800D03*
%TO.P,J2,18,Pin_18*%
%TO.N,Net-(J1-Pad18)*%
X133895340Y-89410800D03*
%TO.P,J2,19,Pin_19*%
%TO.N,Net-(J1-Pad19)*%
X135395340Y-89410800D03*
%TO.P,J2,20,Pin_20*%
%TO.N,Net-(J1-Pad20)*%
X136895340Y-89410800D03*
%TO.P,J2,21,Pin_21*%
%TO.N,Net-(J1-Pad21)*%
X138395340Y-89410800D03*
%TO.P,J2,22,Pin_22*%
%TO.N,Net-(J1-Pad22)*%
X139895340Y-89410800D03*
%TO.P,J2,23,Pin_23*%
%TO.N,Net-(J1-Pad23)*%
X141395340Y-89410800D03*
%TO.P,J2,24,Pin_24*%
%TO.N,Net-(J1-Pad24)*%
X142895340Y-89410800D03*
%TO.P,J2,25,Pin_25*%
%TO.N,Net-(J1-Pad25)*%
X144395340Y-89410800D03*
%TO.P,J2,26,Pin_26*%
%TO.N,Net-(J1-Pad26)*%
X145895340Y-89410800D03*
%TO.P,J2,27,Pin_27*%
%TO.N,Net-(J1-Pad27)*%
X147395340Y-89410800D03*
%TO.P,J2,28,Pin_28*%
%TO.N,Net-(J1-Pad28)*%
X148895340Y-89410800D03*
%TO.P,J2,29,Pin_29*%
%TO.N,Net-(J1-Pad29)*%
X150395340Y-89410800D03*
%TO.P,J2,30,Pin_30*%
%TO.N,Net-(J1-Pad30)*%
X151895340Y-89410800D03*
%TO.P,J2,31,Pin_31*%
%TO.N,Net-(J1-Pad31)*%
X153395340Y-89410800D03*
%TO.P,J2,32,Pin_32*%
%TO.N,Net-(J1-Pad32)*%
X154894280Y-89410800D03*
%TD*%
D13*
%TO.P,U1,1,1*%
%TO.N,Net-(U1-Pad1)*%
X105359200Y-81305400D03*
%TO.P,U1,2,2*%
%TO.N,Net-(U1-Pad2)*%
X105359200Y-75819000D03*
D14*
%TO.P,U1,3,3*%
%TO.N,Net-(U1-Pad3)*%
X108407200Y-75311000D03*
D13*
%TO.P,U1,4,4*%
%TO.N,Net-(U1-Pad4)*%
X108407200Y-81305400D03*
%TD*%
D15*
%TO.N,Net-(J1-Pad32)*%
X154228800Y-81102200D03*
%TO.N,Net-(J1-Pad31)*%
X153060400Y-79552800D03*
%TO.N,Net-(U1-Pad3)*%
X102438200Y-77546200D03*
%TO.N,Net-(U1-Pad4)*%
X103276400Y-79857600D03*
%TD*%
D16*
%TO.N,Net-(J1-Pad32)*%
X154228800Y-81102200D02*
X154887700Y-80443300D01*
X154887700Y-80443300D02*
X154887700Y-77373480D01*
%TO.N,Net-(J1-Pad31)*%
X153060400Y-77701840D02*
X153388760Y-77373480D01*
X153060400Y-79552800D02*
X153060400Y-77701840D01*
%TO.N,Net-(J1-Pad30)*%
X151895340Y-87760340D02*
X151895340Y-89410800D01*
X151384000Y-81762600D02*
X151384000Y-87249000D01*
X151888760Y-77373480D02*
X151888760Y-81257840D01*
X151384000Y-87249000D02*
X151895340Y-87760340D01*
X151888760Y-81257840D02*
X151384000Y-81762600D01*
%TO.N,Net-(J1-Pad29)*%
X150396420Y-86418120D02*
X150395340Y-86419200D01*
X150388760Y-77373480D02*
X150388760Y-86410460D01*
X150395340Y-86419200D02*
X150395340Y-89410800D01*
X150388760Y-86410460D02*
X150396420Y-86418120D01*
%TO.N,Net-(J1-Pad28)*%
X148888760Y-89404220D02*
X148895340Y-89410800D01*
X148888760Y-77373480D02*
X148888760Y-89404220D01*
%TO.N,Net-(J1-Pad27)*%
X147388760Y-77373480D02*
X147388760Y-89404220D01*
X147388760Y-89404220D02*
X147395340Y-89410800D01*
%TO.N,Net-(J1-Pad26)*%
X145896420Y-86418120D02*
X145895340Y-86419200D01*
X145888760Y-86410460D02*
X145896420Y-86418120D01*
X145888760Y-77373480D02*
X145888760Y-86410460D01*
X145895340Y-86419200D02*
X145895340Y-89410800D01*
%TO.N,Net-(J1-Pad25)*%
X144388760Y-86410460D02*
X144395340Y-86417040D01*
X144388760Y-86410460D02*
X144396420Y-86418120D01*
X144388760Y-77373480D02*
X144388760Y-86410460D01*
X144395340Y-86417040D02*
X144395340Y-89410800D01*
%TO.N,Net-(J1-Pad24)*%
X142888760Y-77373480D02*
X142888760Y-89404220D01*
X142888760Y-89404220D02*
X142895340Y-89410800D01*
%TO.N,Net-(J1-Pad23)*%
X141395340Y-77380060D02*
X141388760Y-77373480D01*
X141395340Y-89410800D02*
X141395340Y-77380060D01*
%TO.N,Net-(J1-Pad22)*%
X139888760Y-86410460D02*
X139896420Y-86418120D01*
X139895340Y-86419200D02*
X139895340Y-89410800D01*
X139896420Y-86418120D02*
X139895340Y-86419200D01*
X139888760Y-77373480D02*
X139888760Y-86410460D01*
%TO.N,Net-(J1-Pad3)*%
X111388760Y-86410460D02*
X111396420Y-86418120D01*
X111388760Y-86410460D02*
X111395340Y-86417040D01*
X111388760Y-77373480D02*
X111388760Y-86410460D01*
X111395340Y-86417040D02*
X111395340Y-89410800D01*
%TO.N,Net-(J1-Pad21)*%
X138388760Y-77373480D02*
X138388760Y-89404220D01*
X138388760Y-89404220D02*
X138395340Y-89410800D01*
%TO.N,Net-(J1-Pad20)*%
X136888760Y-77373480D02*
X136888760Y-89404220D01*
X136888760Y-89404220D02*
X136895340Y-89410800D01*
%TO.N,Net-(J1-Pad19)*%
X135388760Y-86410460D02*
X135395340Y-86417040D01*
X135395340Y-86417040D02*
X135395340Y-89410800D01*
X135388760Y-86410460D02*
X135396420Y-86418120D01*
X135388760Y-77373480D02*
X135388760Y-86410460D01*
%TO.N,Net-(J1-Pad18)*%
X133888760Y-77373480D02*
X133888760Y-78873480D01*
X133896420Y-78881140D02*
X133896420Y-86418120D01*
X133888760Y-78873480D02*
X133896420Y-78881140D01*
X133895340Y-86419200D02*
X133895340Y-89410800D01*
X133896420Y-86418120D02*
X133895340Y-86419200D01*
%TO.N,Net-(J1-Pad17)*%
X132388760Y-86410460D02*
X132396420Y-86418120D01*
X132388760Y-77373480D02*
X132388760Y-86410460D01*
X132395340Y-86419200D02*
X132395340Y-89410800D01*
X132396420Y-86418120D02*
X132395340Y-86419200D01*
%TO.N,Net-(J1-Pad16)*%
X130888760Y-77373480D02*
X130888760Y-86410460D01*
X130896420Y-86418120D02*
X130895340Y-86419200D01*
X130895340Y-86419200D02*
X130895340Y-89410800D01*
X130888760Y-86410460D02*
X130896420Y-86418120D01*
%TO.N,Net-(J1-Pad15)*%
X129396420Y-86418120D02*
X129395340Y-86419200D01*
X129395340Y-86419200D02*
X129395340Y-89410800D01*
X129388760Y-84095460D02*
X129396420Y-84103120D01*
X129388760Y-77373480D02*
X129388760Y-84095460D01*
X129396420Y-84103120D02*
X129396420Y-86418120D01*
%TO.N,Net-(J1-Pad14)*%
X127888760Y-89404220D02*
X127895340Y-89410800D01*
X127888760Y-77373480D02*
X127888760Y-89404220D01*
%TO.N,Net-(J1-Pad13)*%
X126395340Y-86417040D02*
X126395340Y-89410800D01*
X126388760Y-86410460D02*
X126395340Y-86417040D01*
X126388760Y-86410460D02*
X126396420Y-86418120D01*
X126388760Y-77373480D02*
X126388760Y-86410460D01*
%TO.N,Net-(J1-Pad12)*%
X124888760Y-77373480D02*
X124888760Y-89404220D01*
X124888760Y-89404220D02*
X124895340Y-89410800D01*
%TO.N,Net-(J1-Pad11)*%
X123388760Y-77373480D02*
X123388760Y-86410460D01*
X123396420Y-86418120D02*
X123395340Y-86419200D01*
X123388760Y-86410460D02*
X123396420Y-86418120D01*
X123395340Y-86419200D02*
X123395340Y-89410800D01*
%TO.N,Net-(J1-Pad10)*%
X121888760Y-77373480D02*
X121888760Y-86410460D01*
X121895340Y-86419200D02*
X121895340Y-89410800D01*
X121888760Y-86410460D02*
X121896420Y-86418120D01*
X121896420Y-86418120D02*
X121895340Y-86419200D01*
%TO.N,Net-(J1-Pad9)*%
X120388760Y-77373480D02*
X120388760Y-86410460D01*
X120395340Y-86419200D02*
X120395340Y-89410800D01*
X120388760Y-86410460D02*
X120396420Y-86418120D01*
X120396420Y-86418120D02*
X120395340Y-86419200D01*
%TO.N,Net-(J1-Pad8)*%
X118888760Y-86198960D02*
X118895340Y-86205540D01*
X118888760Y-77373480D02*
X118888760Y-86198960D01*
X118888760Y-86198960D02*
X118888760Y-86410460D01*
X118888760Y-86410460D02*
X118896420Y-86418120D01*
X118895340Y-86205540D02*
X118895340Y-89410800D01*
%TO.N,Net-(J1-Pad7)*%
X117388760Y-77373480D02*
X117388760Y-89404220D01*
X117388760Y-89404220D02*
X117395340Y-89410800D01*
%TO.N,Net-(J1-Pad6)*%
X115896420Y-86418120D02*
X115895340Y-86419200D01*
X115895340Y-86419200D02*
X115895340Y-89410800D01*
X115888760Y-77373480D02*
X115888760Y-86410460D01*
X115888760Y-86410460D02*
X115896420Y-86418120D01*
%TO.N,Net-(J1-Pad5)*%
X114395340Y-86419200D02*
X114395340Y-89410800D01*
X114396420Y-86418120D02*
X114395340Y-86419200D01*
X114388760Y-86410460D02*
X114396420Y-86418120D01*
X114388760Y-77373480D02*
X114388760Y-86410460D01*
%TO.N,Net-(J1-Pad4)*%
X112895340Y-89410800D02*
X112895340Y-77380060D01*
X112895340Y-77380060D02*
X112888760Y-77373480D01*
%TO.N,Net-(J1-Pad2)*%
X109895340Y-86419200D02*
X109895340Y-89410800D01*
X109888760Y-77373480D02*
X109888760Y-86410460D01*
X109896420Y-86418120D02*
X109895340Y-86419200D01*
X109888760Y-86410460D02*
X109896420Y-86418120D01*
%TO.N,Net-(J1-Pad1)*%
X108390460Y-77373220D02*
X106857800Y-78905880D01*
X106857800Y-83947000D02*
X108397040Y-85486240D01*
X106857800Y-78905880D02*
X106857800Y-83947000D01*
X108397040Y-85486240D02*
X108397040Y-89410540D01*
%TO.N,Net-(U1-Pad1)*%
X105359200Y-80244740D02*
X103905260Y-78790800D01*
X103905260Y-78790800D02*
X101473000Y-78790800D01*
X105359200Y-81305400D02*
X105359200Y-80244740D01*
X101473000Y-78790800D02*
X98983800Y-81280000D01*
%TO.N,Net-(U1-Pad2)*%
X102837400Y-78340800D02*
X101531000Y-78340800D01*
X101531000Y-78340800D02*
X98983800Y-75793600D01*
X105359200Y-75819000D02*
X102837400Y-78340800D01*
%TO.N,Net-(U1-Pad3)*%
X102438200Y-76200000D02*
X102031800Y-75793600D01*
X102438200Y-77546200D02*
X102438200Y-76200000D01*
%TO.N,Net-(U1-Pad4)*%
X103276400Y-80035400D02*
X102031800Y-81280000D01*
X103276400Y-79857600D02*
X103276400Y-80035400D01*
%TD*%
M02*
