%TF.GenerationSoftware,KiCad,Pcbnew,6.0.7+dfsg-1~bpo11+1*%
%TF.CreationDate,2022-09-04T13:44:52+01:00*%
%TF.ProjectId,gba_flex_ds_lite,6762615f-666c-4657-985f-64735f6c6974,rev?*%
%TF.SameCoordinates,Original*%
%TF.FileFunction,Legend,Bot*%
%TF.FilePolarity,Positive*%
%FSLAX46Y46*%
G04 Gerber Fmt 4.6, Leading zero omitted, Abs format (unit mm)*
G04 Created by KiCad (PCBNEW 6.0.7+dfsg-1~bpo11+1) date 2022-09-04 13:44:52*
%MOMM*%
%LPD*%
G01*
G04 APERTURE LIST*
%ADD10C,0.150000*%
G04 APERTURE END LIST*
D10*
X136717539Y-81089371D02*
X137050872Y-81089371D01*
X137050872Y-81613180D02*
X137050872Y-80613180D01*
X136574681Y-80613180D01*
X135765158Y-81613180D02*
X135765158Y-81089371D01*
X135812777Y-80994133D01*
X135908015Y-80946514D01*
X136098491Y-80946514D01*
X136193729Y-80994133D01*
X135765158Y-81565561D02*
X135860396Y-81613180D01*
X136098491Y-81613180D01*
X136193729Y-81565561D01*
X136241348Y-81470323D01*
X136241348Y-81375085D01*
X136193729Y-81279847D01*
X136098491Y-81232228D01*
X135860396Y-81232228D01*
X135765158Y-81184609D01*
X134860396Y-81565561D02*
X134955634Y-81613180D01*
X135146110Y-81613180D01*
X135241348Y-81565561D01*
X135288967Y-81517942D01*
X135336586Y-81422704D01*
X135336586Y-81136990D01*
X135288967Y-81041752D01*
X135241348Y-80994133D01*
X135146110Y-80946514D01*
X134955634Y-80946514D01*
X134860396Y-80994133D01*
X134050872Y-81565561D02*
X134146110Y-81613180D01*
X134336586Y-81613180D01*
X134431824Y-81565561D01*
X134479443Y-81470323D01*
X134479443Y-81089371D01*
X134431824Y-80994133D01*
X134336586Y-80946514D01*
X134146110Y-80946514D01*
X134050872Y-80994133D01*
X134003253Y-81089371D01*
X134003253Y-81184609D01*
X134479443Y-81279847D01*
X133431824Y-81613180D02*
X133527062Y-81565561D01*
X133574681Y-81470323D01*
X133574681Y-80613180D01*
X132669920Y-81565561D02*
X132765158Y-81613180D01*
X132955634Y-81613180D01*
X133050872Y-81565561D01*
X133098491Y-81470323D01*
X133098491Y-81089371D01*
X133050872Y-80994133D01*
X132955634Y-80946514D01*
X132765158Y-80946514D01*
X132669920Y-80994133D01*
X132622300Y-81089371D01*
X132622300Y-81184609D01*
X133098491Y-81279847D01*
X132241348Y-81565561D02*
X132146110Y-81613180D01*
X131955634Y-81613180D01*
X131860396Y-81565561D01*
X131812777Y-81470323D01*
X131812777Y-81422704D01*
X131860396Y-81327466D01*
X131955634Y-81279847D01*
X132098491Y-81279847D01*
X132193729Y-81232228D01*
X132241348Y-81136990D01*
X132241348Y-81089371D01*
X132193729Y-80994133D01*
X132098491Y-80946514D01*
X131955634Y-80946514D01*
X131860396Y-80994133D01*
X131431824Y-81565561D02*
X131336586Y-81613180D01*
X131146110Y-81613180D01*
X131050872Y-81565561D01*
X131003253Y-81470323D01*
X131003253Y-81422704D01*
X131050872Y-81327466D01*
X131146110Y-81279847D01*
X131288967Y-81279847D01*
X131384205Y-81232228D01*
X131431824Y-81136990D01*
X131431824Y-81089371D01*
X131384205Y-80994133D01*
X131288967Y-80946514D01*
X131146110Y-80946514D01*
X131050872Y-80994133D01*
X130717539Y-80946514D02*
X130336586Y-80946514D01*
X130574681Y-80613180D02*
X130574681Y-81470323D01*
X130527062Y-81565561D01*
X130431824Y-81613180D01*
X130336586Y-81613180D01*
X129622300Y-81565561D02*
X129717539Y-81613180D01*
X129908015Y-81613180D01*
X130003253Y-81565561D01*
X130050872Y-81470323D01*
X130050872Y-81089371D01*
X130003253Y-80994133D01*
X129908015Y-80946514D01*
X129717539Y-80946514D01*
X129622300Y-80994133D01*
X129574681Y-81089371D01*
X129574681Y-81184609D01*
X130050872Y-81279847D01*
X128717539Y-81565561D02*
X128812777Y-81613180D01*
X129003253Y-81613180D01*
X129098491Y-81565561D01*
X129146110Y-81517942D01*
X129193729Y-81422704D01*
X129193729Y-81136990D01*
X129146110Y-81041752D01*
X129098491Y-80994133D01*
X129003253Y-80946514D01*
X128812777Y-80946514D01*
X128717539Y-80994133D01*
X128288967Y-81613180D02*
X128288967Y-80613180D01*
X127860396Y-81613180D02*
X127860396Y-81089371D01*
X127908015Y-80994133D01*
X128003253Y-80946514D01*
X128146110Y-80946514D01*
X128241348Y-80994133D01*
X128288967Y-81041752D01*
X126669920Y-80708419D02*
X126622300Y-80660800D01*
X126527062Y-80613180D01*
X126288967Y-80613180D01*
X126193729Y-80660800D01*
X126146110Y-80708419D01*
X126098491Y-80803657D01*
X126098491Y-80898895D01*
X126146110Y-81041752D01*
X126717539Y-81613180D01*
X126098491Y-81613180D01*
X125479443Y-80613180D02*
X125384205Y-80613180D01*
X125288967Y-80660800D01*
X125241348Y-80708419D01*
X125193729Y-80803657D01*
X125146110Y-80994133D01*
X125146110Y-81232228D01*
X125193729Y-81422704D01*
X125241348Y-81517942D01*
X125288967Y-81565561D01*
X125384205Y-81613180D01*
X125479443Y-81613180D01*
X125574681Y-81565561D01*
X125622300Y-81517942D01*
X125669920Y-81422704D01*
X125717539Y-81232228D01*
X125717539Y-80994133D01*
X125669920Y-80803657D01*
X125622300Y-80708419D01*
X125574681Y-80660800D01*
X125479443Y-80613180D01*
X124765158Y-80708419D02*
X124717539Y-80660800D01*
X124622300Y-80613180D01*
X124384205Y-80613180D01*
X124288967Y-80660800D01*
X124241348Y-80708419D01*
X124193729Y-80803657D01*
X124193729Y-80898895D01*
X124241348Y-81041752D01*
X124812777Y-81613180D01*
X124193729Y-81613180D01*
X123812777Y-80708419D02*
X123765158Y-80660800D01*
X123669920Y-80613180D01*
X123431824Y-80613180D01*
X123336586Y-80660800D01*
X123288967Y-80708419D01*
X123241348Y-80803657D01*
X123241348Y-80898895D01*
X123288967Y-81041752D01*
X123860396Y-81613180D01*
X123241348Y-81613180D01*
X138217539Y-83223180D02*
X138217539Y-82223180D01*
X137979443Y-82223180D01*
X137836586Y-82270800D01*
X137741348Y-82366038D01*
X137693729Y-82461276D01*
X137646110Y-82651752D01*
X137646110Y-82794609D01*
X137693729Y-82985085D01*
X137741348Y-83080323D01*
X137836586Y-83175561D01*
X137979443Y-83223180D01*
X138217539Y-83223180D01*
X137265158Y-83175561D02*
X137122300Y-83223180D01*
X136884205Y-83223180D01*
X136788967Y-83175561D01*
X136741348Y-83127942D01*
X136693729Y-83032704D01*
X136693729Y-82937466D01*
X136741348Y-82842228D01*
X136788967Y-82794609D01*
X136884205Y-82746990D01*
X137074681Y-82699371D01*
X137169920Y-82651752D01*
X137217539Y-82604133D01*
X137265158Y-82508895D01*
X137265158Y-82413657D01*
X137217539Y-82318419D01*
X137169920Y-82270800D01*
X137074681Y-82223180D01*
X136836586Y-82223180D01*
X136693729Y-82270800D01*
X136503253Y-83318419D02*
X135741348Y-83318419D01*
X135027062Y-83223180D02*
X135503253Y-83223180D01*
X135503253Y-82223180D01*
X134693729Y-83223180D02*
X134693729Y-82556514D01*
X134693729Y-82223180D02*
X134741348Y-82270800D01*
X134693729Y-82318419D01*
X134646110Y-82270800D01*
X134693729Y-82223180D01*
X134693729Y-82318419D01*
X134360396Y-82556514D02*
X133979443Y-82556514D01*
X134217539Y-82223180D02*
X134217539Y-83080323D01*
X134169920Y-83175561D01*
X134074681Y-83223180D01*
X133979443Y-83223180D01*
X133265158Y-83175561D02*
X133360396Y-83223180D01*
X133550872Y-83223180D01*
X133646110Y-83175561D01*
X133693729Y-83080323D01*
X133693729Y-82699371D01*
X133646110Y-82604133D01*
X133550872Y-82556514D01*
X133360396Y-82556514D01*
X133265158Y-82604133D01*
X133217539Y-82699371D01*
X133217539Y-82794609D01*
X133693729Y-82889847D01*
X133027062Y-83318419D02*
X132265158Y-83318419D01*
X131503253Y-82270800D02*
X131598491Y-82223180D01*
X131741348Y-82223180D01*
X131884205Y-82270800D01*
X131979443Y-82366038D01*
X132027062Y-82461276D01*
X132074681Y-82651752D01*
X132074681Y-82794609D01*
X132027062Y-82985085D01*
X131979443Y-83080323D01*
X131884205Y-83175561D01*
X131741348Y-83223180D01*
X131646110Y-83223180D01*
X131503253Y-83175561D01*
X131455634Y-83127942D01*
X131455634Y-82794609D01*
X131646110Y-82794609D01*
X130693729Y-82699371D02*
X130550872Y-82746990D01*
X130503253Y-82794609D01*
X130455634Y-82889847D01*
X130455634Y-83032704D01*
X130503253Y-83127942D01*
X130550872Y-83175561D01*
X130646110Y-83223180D01*
X131027062Y-83223180D01*
X131027062Y-82223180D01*
X130693729Y-82223180D01*
X130598491Y-82270800D01*
X130550872Y-82318419D01*
X130503253Y-82413657D01*
X130503253Y-82508895D01*
X130550872Y-82604133D01*
X130598491Y-82651752D01*
X130693729Y-82699371D01*
X131027062Y-82699371D01*
X130074681Y-82937466D02*
X129598491Y-82937466D01*
X130169920Y-83223180D02*
X129836586Y-82223180D01*
X129503253Y-83223180D01*
X129408015Y-83318419D02*
X128646110Y-83318419D01*
X128455634Y-83175561D02*
X128312777Y-83223180D01*
X128074681Y-83223180D01*
X127979443Y-83175561D01*
X127931824Y-83127942D01*
X127884205Y-83032704D01*
X127884205Y-82937466D01*
X127931824Y-82842228D01*
X127979443Y-82794609D01*
X128074681Y-82746990D01*
X128265158Y-82699371D01*
X128360396Y-82651752D01*
X128408015Y-82604133D01*
X128455634Y-82508895D01*
X128455634Y-82413657D01*
X128408015Y-82318419D01*
X128360396Y-82270800D01*
X128265158Y-82223180D01*
X128027062Y-82223180D01*
X127884205Y-82270800D01*
X127312777Y-83223180D02*
X127408015Y-83175561D01*
X127455634Y-83080323D01*
X127455634Y-82223180D01*
X126788967Y-83223180D02*
X126884205Y-83175561D01*
X126931824Y-83127942D01*
X126979443Y-83032704D01*
X126979443Y-82746990D01*
X126931824Y-82651752D01*
X126884205Y-82604133D01*
X126788967Y-82556514D01*
X126646110Y-82556514D01*
X126550872Y-82604133D01*
X126503253Y-82651752D01*
X126455634Y-82746990D01*
X126455634Y-83032704D01*
X126503253Y-83127942D01*
X126550872Y-83175561D01*
X126646110Y-83223180D01*
X126788967Y-83223180D01*
X126169920Y-82556514D02*
X125788967Y-82556514D01*
X126027062Y-82223180D02*
X126027062Y-83080323D01*
X125979443Y-83175561D01*
X125884205Y-83223180D01*
X125788967Y-83223180D01*
X125693729Y-83318419D02*
X124931824Y-83318419D01*
X124360396Y-82699371D02*
X124693729Y-82699371D01*
X124693729Y-83223180D02*
X124693729Y-82223180D01*
X124217539Y-82223180D01*
X123693729Y-83223180D02*
X123788967Y-83175561D01*
X123836586Y-83080323D01*
X123836586Y-82223180D01*
X122931824Y-83175561D02*
X123027062Y-83223180D01*
X123217539Y-83223180D01*
X123312777Y-83175561D01*
X123360396Y-83080323D01*
X123360396Y-82699371D01*
X123312777Y-82604133D01*
X123217539Y-82556514D01*
X123027062Y-82556514D01*
X122931824Y-82604133D01*
X122884205Y-82699371D01*
X122884205Y-82794609D01*
X123360396Y-82889847D01*
X122550872Y-83223180D02*
X122027062Y-82556514D01*
X122550872Y-82556514D02*
X122027062Y-83223180D01*
M02*
