%TF.GenerationSoftware,KiCad,Pcbnew,5.1.9+dfsg1-1*%
%TF.CreationDate,2022-08-04T16:43:18+01:00*%
%TF.ProjectId,gba_flex_ds_lite,6762615f-666c-4657-985f-64735f6c6974,rev?*%
%TF.SameCoordinates,Original*%
%TF.FileFunction,Legend,Top*%
%TF.FilePolarity,Positive*%
%FSLAX46Y46*%
G04 Gerber Fmt 4.6, Leading zero omitted, Abs format (unit mm)*
G04 Created by KiCad (PCBNEW 5.1.9+dfsg1-1) date 2022-08-04 16:43:18*
%MOMM*%
%LPD*%
G01*
G04 APERTURE LIST*
%ADD10C,0.150000*%
G04 APERTURE END LIST*
D10*
X123495300Y-81069371D02*
X123161967Y-81069371D01*
X123161967Y-81593180D02*
X123161967Y-80593180D01*
X123638158Y-80593180D01*
X124447681Y-81593180D02*
X124447681Y-81069371D01*
X124400062Y-80974133D01*
X124304824Y-80926514D01*
X124114348Y-80926514D01*
X124019110Y-80974133D01*
X124447681Y-81545561D02*
X124352443Y-81593180D01*
X124114348Y-81593180D01*
X124019110Y-81545561D01*
X123971491Y-81450323D01*
X123971491Y-81355085D01*
X124019110Y-81259847D01*
X124114348Y-81212228D01*
X124352443Y-81212228D01*
X124447681Y-81164609D01*
X125352443Y-81545561D02*
X125257205Y-81593180D01*
X125066729Y-81593180D01*
X124971491Y-81545561D01*
X124923872Y-81497942D01*
X124876253Y-81402704D01*
X124876253Y-81116990D01*
X124923872Y-81021752D01*
X124971491Y-80974133D01*
X125066729Y-80926514D01*
X125257205Y-80926514D01*
X125352443Y-80974133D01*
X126161967Y-81545561D02*
X126066729Y-81593180D01*
X125876253Y-81593180D01*
X125781015Y-81545561D01*
X125733396Y-81450323D01*
X125733396Y-81069371D01*
X125781015Y-80974133D01*
X125876253Y-80926514D01*
X126066729Y-80926514D01*
X126161967Y-80974133D01*
X126209586Y-81069371D01*
X126209586Y-81164609D01*
X125733396Y-81259847D01*
X126781015Y-81593180D02*
X126685777Y-81545561D01*
X126638158Y-81450323D01*
X126638158Y-80593180D01*
X127542920Y-81545561D02*
X127447681Y-81593180D01*
X127257205Y-81593180D01*
X127161967Y-81545561D01*
X127114348Y-81450323D01*
X127114348Y-81069371D01*
X127161967Y-80974133D01*
X127257205Y-80926514D01*
X127447681Y-80926514D01*
X127542920Y-80974133D01*
X127590539Y-81069371D01*
X127590539Y-81164609D01*
X127114348Y-81259847D01*
X127971491Y-81545561D02*
X128066729Y-81593180D01*
X128257205Y-81593180D01*
X128352443Y-81545561D01*
X128400062Y-81450323D01*
X128400062Y-81402704D01*
X128352443Y-81307466D01*
X128257205Y-81259847D01*
X128114348Y-81259847D01*
X128019110Y-81212228D01*
X127971491Y-81116990D01*
X127971491Y-81069371D01*
X128019110Y-80974133D01*
X128114348Y-80926514D01*
X128257205Y-80926514D01*
X128352443Y-80974133D01*
X128781015Y-81545561D02*
X128876253Y-81593180D01*
X129066729Y-81593180D01*
X129161967Y-81545561D01*
X129209586Y-81450323D01*
X129209586Y-81402704D01*
X129161967Y-81307466D01*
X129066729Y-81259847D01*
X128923872Y-81259847D01*
X128828634Y-81212228D01*
X128781015Y-81116990D01*
X128781015Y-81069371D01*
X128828634Y-80974133D01*
X128923872Y-80926514D01*
X129066729Y-80926514D01*
X129161967Y-80974133D01*
X129495300Y-80926514D02*
X129876253Y-80926514D01*
X129638158Y-80593180D02*
X129638158Y-81450323D01*
X129685777Y-81545561D01*
X129781015Y-81593180D01*
X129876253Y-81593180D01*
X130590539Y-81545561D02*
X130495300Y-81593180D01*
X130304824Y-81593180D01*
X130209586Y-81545561D01*
X130161967Y-81450323D01*
X130161967Y-81069371D01*
X130209586Y-80974133D01*
X130304824Y-80926514D01*
X130495300Y-80926514D01*
X130590539Y-80974133D01*
X130638158Y-81069371D01*
X130638158Y-81164609D01*
X130161967Y-81259847D01*
X131495300Y-81545561D02*
X131400062Y-81593180D01*
X131209586Y-81593180D01*
X131114348Y-81545561D01*
X131066729Y-81497942D01*
X131019110Y-81402704D01*
X131019110Y-81116990D01*
X131066729Y-81021752D01*
X131114348Y-80974133D01*
X131209586Y-80926514D01*
X131400062Y-80926514D01*
X131495300Y-80974133D01*
X131923872Y-81593180D02*
X131923872Y-80593180D01*
X132352443Y-81593180D02*
X132352443Y-81069371D01*
X132304824Y-80974133D01*
X132209586Y-80926514D01*
X132066729Y-80926514D01*
X131971491Y-80974133D01*
X131923872Y-81021752D01*
X133542920Y-80688419D02*
X133590539Y-80640800D01*
X133685777Y-80593180D01*
X133923872Y-80593180D01*
X134019110Y-80640800D01*
X134066729Y-80688419D01*
X134114348Y-80783657D01*
X134114348Y-80878895D01*
X134066729Y-81021752D01*
X133495300Y-81593180D01*
X134114348Y-81593180D01*
X134733396Y-80593180D02*
X134828634Y-80593180D01*
X134923872Y-80640800D01*
X134971491Y-80688419D01*
X135019110Y-80783657D01*
X135066729Y-80974133D01*
X135066729Y-81212228D01*
X135019110Y-81402704D01*
X134971491Y-81497942D01*
X134923872Y-81545561D01*
X134828634Y-81593180D01*
X134733396Y-81593180D01*
X134638158Y-81545561D01*
X134590539Y-81497942D01*
X134542920Y-81402704D01*
X134495300Y-81212228D01*
X134495300Y-80974133D01*
X134542920Y-80783657D01*
X134590539Y-80688419D01*
X134638158Y-80640800D01*
X134733396Y-80593180D01*
X135447681Y-80688419D02*
X135495300Y-80640800D01*
X135590539Y-80593180D01*
X135828634Y-80593180D01*
X135923872Y-80640800D01*
X135971491Y-80688419D01*
X136019110Y-80783657D01*
X136019110Y-80878895D01*
X135971491Y-81021752D01*
X135400062Y-81593180D01*
X136019110Y-81593180D01*
X136400062Y-80688419D02*
X136447681Y-80640800D01*
X136542920Y-80593180D01*
X136781015Y-80593180D01*
X136876253Y-80640800D01*
X136923872Y-80688419D01*
X136971491Y-80783657D01*
X136971491Y-80878895D01*
X136923872Y-81021752D01*
X136352443Y-81593180D01*
X136971491Y-81593180D01*
X121995300Y-83243180D02*
X121995300Y-82243180D01*
X122233396Y-82243180D01*
X122376253Y-82290800D01*
X122471491Y-82386038D01*
X122519110Y-82481276D01*
X122566729Y-82671752D01*
X122566729Y-82814609D01*
X122519110Y-83005085D01*
X122471491Y-83100323D01*
X122376253Y-83195561D01*
X122233396Y-83243180D01*
X121995300Y-83243180D01*
X122947681Y-83195561D02*
X123090539Y-83243180D01*
X123328634Y-83243180D01*
X123423872Y-83195561D01*
X123471491Y-83147942D01*
X123519110Y-83052704D01*
X123519110Y-82957466D01*
X123471491Y-82862228D01*
X123423872Y-82814609D01*
X123328634Y-82766990D01*
X123138158Y-82719371D01*
X123042920Y-82671752D01*
X122995300Y-82624133D01*
X122947681Y-82528895D01*
X122947681Y-82433657D01*
X122995300Y-82338419D01*
X123042920Y-82290800D01*
X123138158Y-82243180D01*
X123376253Y-82243180D01*
X123519110Y-82290800D01*
X123709586Y-83338419D02*
X124471491Y-83338419D01*
X125185777Y-83243180D02*
X124709586Y-83243180D01*
X124709586Y-82243180D01*
X125519110Y-83243180D02*
X125519110Y-82576514D01*
X125519110Y-82243180D02*
X125471491Y-82290800D01*
X125519110Y-82338419D01*
X125566729Y-82290800D01*
X125519110Y-82243180D01*
X125519110Y-82338419D01*
X125852443Y-82576514D02*
X126233396Y-82576514D01*
X125995300Y-82243180D02*
X125995300Y-83100323D01*
X126042920Y-83195561D01*
X126138158Y-83243180D01*
X126233396Y-83243180D01*
X126947681Y-83195561D02*
X126852443Y-83243180D01*
X126661967Y-83243180D01*
X126566729Y-83195561D01*
X126519110Y-83100323D01*
X126519110Y-82719371D01*
X126566729Y-82624133D01*
X126661967Y-82576514D01*
X126852443Y-82576514D01*
X126947681Y-82624133D01*
X126995300Y-82719371D01*
X126995300Y-82814609D01*
X126519110Y-82909847D01*
X127185777Y-83338419D02*
X127947681Y-83338419D01*
X128709586Y-82290800D02*
X128614348Y-82243180D01*
X128471491Y-82243180D01*
X128328634Y-82290800D01*
X128233396Y-82386038D01*
X128185777Y-82481276D01*
X128138158Y-82671752D01*
X128138158Y-82814609D01*
X128185777Y-83005085D01*
X128233396Y-83100323D01*
X128328634Y-83195561D01*
X128471491Y-83243180D01*
X128566729Y-83243180D01*
X128709586Y-83195561D01*
X128757205Y-83147942D01*
X128757205Y-82814609D01*
X128566729Y-82814609D01*
X129519110Y-82719371D02*
X129661967Y-82766990D01*
X129709586Y-82814609D01*
X129757205Y-82909847D01*
X129757205Y-83052704D01*
X129709586Y-83147942D01*
X129661967Y-83195561D01*
X129566729Y-83243180D01*
X129185777Y-83243180D01*
X129185777Y-82243180D01*
X129519110Y-82243180D01*
X129614348Y-82290800D01*
X129661967Y-82338419D01*
X129709586Y-82433657D01*
X129709586Y-82528895D01*
X129661967Y-82624133D01*
X129614348Y-82671752D01*
X129519110Y-82719371D01*
X129185777Y-82719371D01*
X130138158Y-82957466D02*
X130614348Y-82957466D01*
X130042920Y-83243180D02*
X130376253Y-82243180D01*
X130709586Y-83243180D01*
X130804824Y-83338419D02*
X131566729Y-83338419D01*
X131757205Y-83195561D02*
X131900062Y-83243180D01*
X132138158Y-83243180D01*
X132233396Y-83195561D01*
X132281015Y-83147942D01*
X132328634Y-83052704D01*
X132328634Y-82957466D01*
X132281015Y-82862228D01*
X132233396Y-82814609D01*
X132138158Y-82766990D01*
X131947681Y-82719371D01*
X131852443Y-82671752D01*
X131804824Y-82624133D01*
X131757205Y-82528895D01*
X131757205Y-82433657D01*
X131804824Y-82338419D01*
X131852443Y-82290800D01*
X131947681Y-82243180D01*
X132185777Y-82243180D01*
X132328634Y-82290800D01*
X132900062Y-83243180D02*
X132804824Y-83195561D01*
X132757205Y-83100323D01*
X132757205Y-82243180D01*
X133423872Y-83243180D02*
X133328634Y-83195561D01*
X133281015Y-83147942D01*
X133233396Y-83052704D01*
X133233396Y-82766990D01*
X133281015Y-82671752D01*
X133328634Y-82624133D01*
X133423872Y-82576514D01*
X133566729Y-82576514D01*
X133661967Y-82624133D01*
X133709586Y-82671752D01*
X133757205Y-82766990D01*
X133757205Y-83052704D01*
X133709586Y-83147942D01*
X133661967Y-83195561D01*
X133566729Y-83243180D01*
X133423872Y-83243180D01*
X134042920Y-82576514D02*
X134423872Y-82576514D01*
X134185777Y-82243180D02*
X134185777Y-83100323D01*
X134233396Y-83195561D01*
X134328634Y-83243180D01*
X134423872Y-83243180D01*
X134519110Y-83338419D02*
X135281015Y-83338419D01*
X135852443Y-82719371D02*
X135519110Y-82719371D01*
X135519110Y-83243180D02*
X135519110Y-82243180D01*
X135995300Y-82243180D01*
X136519110Y-83243180D02*
X136423872Y-83195561D01*
X136376253Y-83100323D01*
X136376253Y-82243180D01*
X137281015Y-83195561D02*
X137185777Y-83243180D01*
X136995300Y-83243180D01*
X136900062Y-83195561D01*
X136852443Y-83100323D01*
X136852443Y-82719371D01*
X136900062Y-82624133D01*
X136995300Y-82576514D01*
X137185777Y-82576514D01*
X137281015Y-82624133D01*
X137328634Y-82719371D01*
X137328634Y-82814609D01*
X136852443Y-82909847D01*
X137661967Y-83243180D02*
X138185777Y-82576514D01*
X137661967Y-82576514D02*
X138185777Y-83243180D01*
M02*
