%TF.GenerationSoftware,KiCad,Pcbnew,5.1.9+dfsg1-1*%
%TF.CreationDate,2022-08-04T16:43:19+01:00*%
%TF.ProjectId,gba_flex_ds_lite,6762615f-666c-4657-985f-64735f6c6974,rev?*%
%TF.SameCoordinates,Original*%
%TF.FileFunction,Legend,Bot*%
%TF.FilePolarity,Positive*%
%FSLAX46Y46*%
G04 Gerber Fmt 4.6, Leading zero omitted, Abs format (unit mm)*
G04 Created by KiCad (PCBNEW 5.1.9+dfsg1-1) date 2022-08-04 16:43:19*
%MOMM*%
%LPD*%
G01*
G04 APERTURE LIST*
%ADD10C,0.150000*%
G04 APERTURE END LIST*
D10*
X136717539Y-81069371D02*
X137050872Y-81069371D01*
X137050872Y-81593180D02*
X137050872Y-80593180D01*
X136574681Y-80593180D01*
X135765158Y-81593180D02*
X135765158Y-81069371D01*
X135812777Y-80974133D01*
X135908015Y-80926514D01*
X136098491Y-80926514D01*
X136193729Y-80974133D01*
X135765158Y-81545561D02*
X135860396Y-81593180D01*
X136098491Y-81593180D01*
X136193729Y-81545561D01*
X136241348Y-81450323D01*
X136241348Y-81355085D01*
X136193729Y-81259847D01*
X136098491Y-81212228D01*
X135860396Y-81212228D01*
X135765158Y-81164609D01*
X134860396Y-81545561D02*
X134955634Y-81593180D01*
X135146110Y-81593180D01*
X135241348Y-81545561D01*
X135288967Y-81497942D01*
X135336586Y-81402704D01*
X135336586Y-81116990D01*
X135288967Y-81021752D01*
X135241348Y-80974133D01*
X135146110Y-80926514D01*
X134955634Y-80926514D01*
X134860396Y-80974133D01*
X134050872Y-81545561D02*
X134146110Y-81593180D01*
X134336586Y-81593180D01*
X134431824Y-81545561D01*
X134479443Y-81450323D01*
X134479443Y-81069371D01*
X134431824Y-80974133D01*
X134336586Y-80926514D01*
X134146110Y-80926514D01*
X134050872Y-80974133D01*
X134003253Y-81069371D01*
X134003253Y-81164609D01*
X134479443Y-81259847D01*
X133431824Y-81593180D02*
X133527062Y-81545561D01*
X133574681Y-81450323D01*
X133574681Y-80593180D01*
X132669920Y-81545561D02*
X132765158Y-81593180D01*
X132955634Y-81593180D01*
X133050872Y-81545561D01*
X133098491Y-81450323D01*
X133098491Y-81069371D01*
X133050872Y-80974133D01*
X132955634Y-80926514D01*
X132765158Y-80926514D01*
X132669920Y-80974133D01*
X132622300Y-81069371D01*
X132622300Y-81164609D01*
X133098491Y-81259847D01*
X132241348Y-81545561D02*
X132146110Y-81593180D01*
X131955634Y-81593180D01*
X131860396Y-81545561D01*
X131812777Y-81450323D01*
X131812777Y-81402704D01*
X131860396Y-81307466D01*
X131955634Y-81259847D01*
X132098491Y-81259847D01*
X132193729Y-81212228D01*
X132241348Y-81116990D01*
X132241348Y-81069371D01*
X132193729Y-80974133D01*
X132098491Y-80926514D01*
X131955634Y-80926514D01*
X131860396Y-80974133D01*
X131431824Y-81545561D02*
X131336586Y-81593180D01*
X131146110Y-81593180D01*
X131050872Y-81545561D01*
X131003253Y-81450323D01*
X131003253Y-81402704D01*
X131050872Y-81307466D01*
X131146110Y-81259847D01*
X131288967Y-81259847D01*
X131384205Y-81212228D01*
X131431824Y-81116990D01*
X131431824Y-81069371D01*
X131384205Y-80974133D01*
X131288967Y-80926514D01*
X131146110Y-80926514D01*
X131050872Y-80974133D01*
X130717539Y-80926514D02*
X130336586Y-80926514D01*
X130574681Y-80593180D02*
X130574681Y-81450323D01*
X130527062Y-81545561D01*
X130431824Y-81593180D01*
X130336586Y-81593180D01*
X129622300Y-81545561D02*
X129717539Y-81593180D01*
X129908015Y-81593180D01*
X130003253Y-81545561D01*
X130050872Y-81450323D01*
X130050872Y-81069371D01*
X130003253Y-80974133D01*
X129908015Y-80926514D01*
X129717539Y-80926514D01*
X129622300Y-80974133D01*
X129574681Y-81069371D01*
X129574681Y-81164609D01*
X130050872Y-81259847D01*
X128717539Y-81545561D02*
X128812777Y-81593180D01*
X129003253Y-81593180D01*
X129098491Y-81545561D01*
X129146110Y-81497942D01*
X129193729Y-81402704D01*
X129193729Y-81116990D01*
X129146110Y-81021752D01*
X129098491Y-80974133D01*
X129003253Y-80926514D01*
X128812777Y-80926514D01*
X128717539Y-80974133D01*
X128288967Y-81593180D02*
X128288967Y-80593180D01*
X127860396Y-81593180D02*
X127860396Y-81069371D01*
X127908015Y-80974133D01*
X128003253Y-80926514D01*
X128146110Y-80926514D01*
X128241348Y-80974133D01*
X128288967Y-81021752D01*
X126669920Y-80688419D02*
X126622300Y-80640800D01*
X126527062Y-80593180D01*
X126288967Y-80593180D01*
X126193729Y-80640800D01*
X126146110Y-80688419D01*
X126098491Y-80783657D01*
X126098491Y-80878895D01*
X126146110Y-81021752D01*
X126717539Y-81593180D01*
X126098491Y-81593180D01*
X125479443Y-80593180D02*
X125384205Y-80593180D01*
X125288967Y-80640800D01*
X125241348Y-80688419D01*
X125193729Y-80783657D01*
X125146110Y-80974133D01*
X125146110Y-81212228D01*
X125193729Y-81402704D01*
X125241348Y-81497942D01*
X125288967Y-81545561D01*
X125384205Y-81593180D01*
X125479443Y-81593180D01*
X125574681Y-81545561D01*
X125622300Y-81497942D01*
X125669920Y-81402704D01*
X125717539Y-81212228D01*
X125717539Y-80974133D01*
X125669920Y-80783657D01*
X125622300Y-80688419D01*
X125574681Y-80640800D01*
X125479443Y-80593180D01*
X124765158Y-80688419D02*
X124717539Y-80640800D01*
X124622300Y-80593180D01*
X124384205Y-80593180D01*
X124288967Y-80640800D01*
X124241348Y-80688419D01*
X124193729Y-80783657D01*
X124193729Y-80878895D01*
X124241348Y-81021752D01*
X124812777Y-81593180D01*
X124193729Y-81593180D01*
X123812777Y-80688419D02*
X123765158Y-80640800D01*
X123669920Y-80593180D01*
X123431824Y-80593180D01*
X123336586Y-80640800D01*
X123288967Y-80688419D01*
X123241348Y-80783657D01*
X123241348Y-80878895D01*
X123288967Y-81021752D01*
X123860396Y-81593180D01*
X123241348Y-81593180D01*
X138217539Y-83243180D02*
X138217539Y-82243180D01*
X137979443Y-82243180D01*
X137836586Y-82290800D01*
X137741348Y-82386038D01*
X137693729Y-82481276D01*
X137646110Y-82671752D01*
X137646110Y-82814609D01*
X137693729Y-83005085D01*
X137741348Y-83100323D01*
X137836586Y-83195561D01*
X137979443Y-83243180D01*
X138217539Y-83243180D01*
X137265158Y-83195561D02*
X137122300Y-83243180D01*
X136884205Y-83243180D01*
X136788967Y-83195561D01*
X136741348Y-83147942D01*
X136693729Y-83052704D01*
X136693729Y-82957466D01*
X136741348Y-82862228D01*
X136788967Y-82814609D01*
X136884205Y-82766990D01*
X137074681Y-82719371D01*
X137169920Y-82671752D01*
X137217539Y-82624133D01*
X137265158Y-82528895D01*
X137265158Y-82433657D01*
X137217539Y-82338419D01*
X137169920Y-82290800D01*
X137074681Y-82243180D01*
X136836586Y-82243180D01*
X136693729Y-82290800D01*
X136503253Y-83338419D02*
X135741348Y-83338419D01*
X135027062Y-83243180D02*
X135503253Y-83243180D01*
X135503253Y-82243180D01*
X134693729Y-83243180D02*
X134693729Y-82576514D01*
X134693729Y-82243180D02*
X134741348Y-82290800D01*
X134693729Y-82338419D01*
X134646110Y-82290800D01*
X134693729Y-82243180D01*
X134693729Y-82338419D01*
X134360396Y-82576514D02*
X133979443Y-82576514D01*
X134217539Y-82243180D02*
X134217539Y-83100323D01*
X134169920Y-83195561D01*
X134074681Y-83243180D01*
X133979443Y-83243180D01*
X133265158Y-83195561D02*
X133360396Y-83243180D01*
X133550872Y-83243180D01*
X133646110Y-83195561D01*
X133693729Y-83100323D01*
X133693729Y-82719371D01*
X133646110Y-82624133D01*
X133550872Y-82576514D01*
X133360396Y-82576514D01*
X133265158Y-82624133D01*
X133217539Y-82719371D01*
X133217539Y-82814609D01*
X133693729Y-82909847D01*
X133027062Y-83338419D02*
X132265158Y-83338419D01*
X131503253Y-82290800D02*
X131598491Y-82243180D01*
X131741348Y-82243180D01*
X131884205Y-82290800D01*
X131979443Y-82386038D01*
X132027062Y-82481276D01*
X132074681Y-82671752D01*
X132074681Y-82814609D01*
X132027062Y-83005085D01*
X131979443Y-83100323D01*
X131884205Y-83195561D01*
X131741348Y-83243180D01*
X131646110Y-83243180D01*
X131503253Y-83195561D01*
X131455634Y-83147942D01*
X131455634Y-82814609D01*
X131646110Y-82814609D01*
X130693729Y-82719371D02*
X130550872Y-82766990D01*
X130503253Y-82814609D01*
X130455634Y-82909847D01*
X130455634Y-83052704D01*
X130503253Y-83147942D01*
X130550872Y-83195561D01*
X130646110Y-83243180D01*
X131027062Y-83243180D01*
X131027062Y-82243180D01*
X130693729Y-82243180D01*
X130598491Y-82290800D01*
X130550872Y-82338419D01*
X130503253Y-82433657D01*
X130503253Y-82528895D01*
X130550872Y-82624133D01*
X130598491Y-82671752D01*
X130693729Y-82719371D01*
X131027062Y-82719371D01*
X130074681Y-82957466D02*
X129598491Y-82957466D01*
X130169920Y-83243180D02*
X129836586Y-82243180D01*
X129503253Y-83243180D01*
X129408015Y-83338419D02*
X128646110Y-83338419D01*
X128455634Y-83195561D02*
X128312777Y-83243180D01*
X128074681Y-83243180D01*
X127979443Y-83195561D01*
X127931824Y-83147942D01*
X127884205Y-83052704D01*
X127884205Y-82957466D01*
X127931824Y-82862228D01*
X127979443Y-82814609D01*
X128074681Y-82766990D01*
X128265158Y-82719371D01*
X128360396Y-82671752D01*
X128408015Y-82624133D01*
X128455634Y-82528895D01*
X128455634Y-82433657D01*
X128408015Y-82338419D01*
X128360396Y-82290800D01*
X128265158Y-82243180D01*
X128027062Y-82243180D01*
X127884205Y-82290800D01*
X127312777Y-83243180D02*
X127408015Y-83195561D01*
X127455634Y-83100323D01*
X127455634Y-82243180D01*
X126788967Y-83243180D02*
X126884205Y-83195561D01*
X126931824Y-83147942D01*
X126979443Y-83052704D01*
X126979443Y-82766990D01*
X126931824Y-82671752D01*
X126884205Y-82624133D01*
X126788967Y-82576514D01*
X126646110Y-82576514D01*
X126550872Y-82624133D01*
X126503253Y-82671752D01*
X126455634Y-82766990D01*
X126455634Y-83052704D01*
X126503253Y-83147942D01*
X126550872Y-83195561D01*
X126646110Y-83243180D01*
X126788967Y-83243180D01*
X126169920Y-82576514D02*
X125788967Y-82576514D01*
X126027062Y-82243180D02*
X126027062Y-83100323D01*
X125979443Y-83195561D01*
X125884205Y-83243180D01*
X125788967Y-83243180D01*
X125693729Y-83338419D02*
X124931824Y-83338419D01*
X124360396Y-82719371D02*
X124693729Y-82719371D01*
X124693729Y-83243180D02*
X124693729Y-82243180D01*
X124217539Y-82243180D01*
X123693729Y-83243180D02*
X123788967Y-83195561D01*
X123836586Y-83100323D01*
X123836586Y-82243180D01*
X122931824Y-83195561D02*
X123027062Y-83243180D01*
X123217539Y-83243180D01*
X123312777Y-83195561D01*
X123360396Y-83100323D01*
X123360396Y-82719371D01*
X123312777Y-82624133D01*
X123217539Y-82576514D01*
X123027062Y-82576514D01*
X122931824Y-82624133D01*
X122884205Y-82719371D01*
X122884205Y-82814609D01*
X123360396Y-82909847D01*
X122550872Y-83243180D02*
X122027062Y-82576514D01*
X122550872Y-82576514D02*
X122027062Y-83243180D01*
M02*
